<svg width="76" height="93" viewBox="0 0 76 93" fill="none" xmlns="http://www.w3.org/2000/svg">
<path d="M14.9199 32.6898C14.9199 34.3998 16.2899 35.7898 17.9999 35.8098H57.2499C58.9599 35.7898 60.3299 34.3898 60.3299 32.6898C60.3299 30.9798 58.9599 29.5898 57.2499 29.5698H17.9999C16.2899 29.5898 14.9199 30.9798 14.9199 32.6898Z" fill="white"/>
<path d="M17.9999 22.6301H41.8399C43.5499 22.6101 44.9199 21.2101 44.9199 19.5101C44.9199 17.8001 43.5499 16.4101 41.8399 16.3901H17.9999C16.2899 16.4101 14.9199 17.8101 14.9199 19.5101C14.9199 21.2101 16.2899 22.6001 17.9999 22.6301Z" fill="white"/>
<path d="M74.07 17.07L57.92 0.919983C57.33 0.329983 56.54 0 55.71 0H9.17C4.11 0.01 0.01 4.10998 0 9.16998V83.58C0 88.64 4.11 92.74 9.17 92.75H66.06C71.12 92.74 75.22 88.64 75.23 83.58V19.77C75.32 18.74 74.89 17.73 74.07 17.07ZM58.83 10.67L64.54 16.38H58.83V10.67ZM68.98 83.59C68.98 85.2 67.67 86.51 66.06 86.51H9.17C7.56 86.51 6.25 85.2 6.25 83.59V9.17999C6.25 7.56999 7.56 6.26001 9.17 6.26001H52.58V19.51C52.58 20.34 52.91 21.13 53.49 21.72C54.08 22.31 54.87 22.64 55.7 22.64H68.97V83.59H68.98Z" fill="white"/>
<path d="M20.85 69.5198L16.06 63.7397H13.54V74.5798H16.54V68.7997L21.33 74.5798H23.85V63.7397H20.85V69.5198Z" fill="white"/>
<path d="M30.98 63.7397H26.02V74.5798H29.09V71.7498H30.98C33.94 71.7498 35.8 70.2198 35.8 67.7498C35.79 65.2698 33.94 63.7397 30.98 63.7397ZM30.79 69.3298H29.09V66.1498H30.79C32.06 66.1498 32.69 66.7398 32.69 67.7498C32.7 68.7398 32.06 69.3298 30.79 69.3298Z" fill="white"/>
<path d="M48.9398 70.7197L46.7598 63.7397H43.9398L41.6498 70.6597L39.4598 63.7397H36.2998L39.8198 74.5798H43.0998L45.2698 67.9797L47.3498 74.5798H50.6298L54.1398 63.7397H51.2198L48.9398 70.7197Z" fill="white"/>
<path d="M55.2402 63.7397V74.5798H58.3102V71.7498H60.2002C63.1602 71.7498 65.0202 70.2198 65.0202 67.7498C65.0202 65.2698 63.1602 63.7397 60.2002 63.7397H55.2402ZM61.9202 67.7498C61.9202 68.7398 61.2902 69.3298 60.0202 69.3298H58.3202V66.1498H60.0202C61.2802 66.1598 61.9202 66.7398 61.9202 67.7498Z" fill="white"/>
<path d="M57.2499 44.8398H17.9999C16.2899 44.8598 14.9199 46.2598 14.9199 47.9598C14.9199 49.6698 16.2899 51.0598 17.9999 51.0798H57.2499C58.9599 51.0498 60.3299 49.6598 60.3299 47.9598C60.3199 46.2598 58.9499 44.8598 57.2499 44.8398Z" fill="white"/>
</svg>
