<svg width="48" height="48" viewBox="0 0 48 48" fill="none" xmlns="http://www.w3.org/2000/svg">
<rect width="48" height="48" rx="24" fill="#9E1F16"/>
<path fill-rule="evenodd" clip-rule="evenodd" d="M19 15C19 13.8954 19.8954 13 21 13H27C28.1046 13 29 13.8954 29 15V17C29 18.1046 28.1046 19 27 19H21C19.8954 19 19 18.1046 19 17V15ZM27 15H21V17H27V15Z" fill="#FEFEFE"/>
<path fill-rule="evenodd" clip-rule="evenodd" d="M23.905 24.9961C23.7606 24.9961 23.6175 25.0245 23.484 25.0798C23.3507 25.135 23.2296 25.2159 23.1275 25.3179C23.1274 25.318 23.1277 25.3178 23.1275 25.3179L17.8929 30.5622L17.3769 32.6211L19.4386 32.0991L24.6829 26.8741C24.6831 26.8739 24.6827 26.8743 24.6829 26.8741C24.7848 26.772 24.8662 26.6504 24.9214 26.5172C24.9767 26.3837 25.0051 26.2407 25.0051 26.0962C25.0051 25.9517 24.9767 25.8087 24.9214 25.6752C24.8661 25.5417 24.7851 25.4205 24.6829 25.3183C24.5808 25.2162 24.4595 25.1351 24.326 25.0798C24.1925 25.0245 24.0495 24.9961 23.905 24.9961ZM22.7187 23.2321C23.0948 23.0763 23.4979 22.9961 23.905 22.9961C24.3121 22.9961 24.7153 23.0763 25.0914 23.2321C25.4675 23.3879 25.8093 23.6162 26.0971 23.9041C26.385 24.192 26.6134 24.5337 26.7691 24.9098C26.9249 25.286 27.0051 25.6891 27.0051 26.0962C27.0051 26.5033 26.9249 26.9064 26.7691 27.2826C26.6134 27.6587 26.385 28.0004 26.0971 28.2883L20.6558 33.7096C20.5286 33.8364 20.3696 33.9265 20.1954 33.9706L16.2454 34.9706C15.9043 35.057 15.5429 34.9577 15.2938 34.7091C15.0446 34.4606 14.9445 34.0994 15.03 33.7581L16.02 29.8081C16.064 29.6328 16.1546 29.4727 16.2823 29.3447L21.7123 23.9047C22.0001 23.6169 22.3425 23.3879 22.7187 23.2321Z" fill="#FEFEFE"/>
<path fill-rule="evenodd" clip-rule="evenodd" d="M27 16C27 15.4477 27.4477 15 28 15H30C30.7956 15 31.5587 15.3161 32.1213 15.8787C32.6839 16.4413 33 17.2044 33 18V32C33 32.7957 32.6839 33.5587 32.1213 34.1213C31.5587 34.6839 30.7957 35 30 35H24.5C23.9477 35 23.5 34.5523 23.5 34C23.5 33.4477 23.9477 33 24.5 33H30C30.2652 33 30.5196 32.8946 30.7071 32.7071C30.8946 32.5196 31 32.2652 31 32V18C31 17.7348 30.8946 17.4804 30.7071 17.2929C30.5196 17.1054 30.2652 17 30 17H28C27.4477 17 27 16.5523 27 16Z" fill="#FEFEFE"/>
<path fill-rule="evenodd" clip-rule="evenodd" d="M18 17C17.7348 17 17.4804 17.1054 17.2929 17.2929C17.1054 17.4804 17 17.7348 17 18V25.5C17 26.0523 16.5523 26.5 16 26.5C15.4477 26.5 15 26.0523 15 25.5V18C15 17.2044 15.3161 16.4413 15.8787 15.8787C16.4413 15.3161 17.2044 15 18 15H20C20.5523 15 21 15.4477 21 16C21 16.5523 20.5523 17 20 17H18Z" fill="#FEFEFE"/>
</svg>
